<svg xmlns="http://www.w3.org/2000/svg">
    
    <!-- Fondo del restaurante con la imagen -->
    <rect x="0" y="0" width="100%" height="100%" fill="#c1c1c1"/>

    <g id="layout" transform="translate(50, 0)">
        <!-- Superficies grandes (2) - Comedores -->
        <g id="Comedores_(2)">
            <g id="Comedor_1" transform="translate(1020, 60) rotate(90, 0, 0)">
                <rect x="0" y="0" width="480" height="320" fill="#E6B0AA" stroke="#333" stroke-width="2"/> 
            </g>
            <g id="Comedor_2" transform="translate(700, 60) rotate(90, 0, 0)">
                <rect x="0" y="0" width="480" height="320" fill="#E6B0AA" stroke="#333" stroke-width="2"/>
            </g>
        </g>

        <!-- Superficies medianas (3) - Terrazas -->
        <g id="Terrazas_(3)">
            <g id="Terraza_1" transform="translate(380, 210) rotate(90, 0, 0)">
                <rect x="0" y="0" width="330" height="150" fill="#A2D9CE" stroke="#333" stroke-width="2"/>
            </g>
            <g id="Terraza_2" transform="translate(1170, 210) rotate(90, 0, 0)">
                <rect x="0" y="0" width="330" height="150" fill="#A2D9CE" stroke="#333" stroke-width="2"/>
            </g>
            <g id="Terraza_3" transform="translate(380,540) rotate(0, 0, 0)">
                <rect x="0" y="0" width="640" height="150" fill="#A2D9CE" stroke="#333" stroke-width="2"/>
            </g>
        </g>

        <!-- Superficies pequeñas (4) - Salas Privadas -->
        <g id="Salas_privadas(4)">
            <g id="Sala_privada_1" transform="translate(380, 60) rotate(90, 0, 0)">
                <rect x="0" y="0" width="150" height="150" fill="#AED6F1" stroke="#333" stroke-width="2"/>
            </g>
            <g id="Sala_privada_2" transform="translate(380, 540) rotate(90, 0, 0)">
                <rect x="0" y="0" width="150" height="150" fill="#AED6F1" stroke="#333" stroke-width="2"/>
            </g>
            <g id="Sala_privada_3" transform="translate(1170, 540) rotate(90, 0, 0)">
                <rect x="0" y="0" width="150" height="150" fill="#AED6F1" stroke="#333" stroke-width="2"/>
            </g>
            <g id="Sala_privada_4" transform="translate(1170, 60) rotate(90, 0, 0)">
                <rect x="0" y="0" width="150" height="150" fill="#AED6F1" stroke="#333" stroke-width="2"/>
            </g>
        </g>
    </g>
</svg>